<?xml version="1.0" encoding="iso-8859-1"?>
<!-- Generator: Adobe Illustrator 19.0.0, SVG Export Plug-In . SVG Version: 6.00 Build 0)  -->
<svg version="1.1" id="Layer_1" xmlns="http://www.w3.org/2000/svg" xmlns:xlink="http://www.w3.org/1999/xlink" x="0px" y="0px"
	 viewBox="0 0 512.001 512.001" style="enable-background:new 0 0 512.001 512.001;" xml:space="preserve">
<polygon style="fill:#127C8D;" points="165.168,319.918 125.849,359.236 156.128,390.581 195.979,350.729 "/>
<path style="fill:#4BBCD6;" d="M421.232,105.922l-15.153-15.153c-2.884-2.884-8.566-5.529-12.628-5.877l-39.827-3.427l76.912,76.912
	l-3.427-39.827C426.76,114.488,424.115,108.806,421.232,105.922z"/>
<rect x="345.589" y="84.797" transform="matrix(-0.7071 0.7071 -0.7071 -0.7071 734.8644 -26.0258)" style="fill:#127C8D;" width="54.468" height="108.772"/>
<rect x="193.961" y="120.615" transform="matrix(-0.7071 -0.7071 0.7071 -0.7071 271.0738 611.8082)" style="fill:#8FD9C2;" width="136.572" height="258.296"/>
<rect x="344.135" y="311.736" transform="matrix(-0.7071 -0.7071 0.7071 -0.7071 434.2726 840.1118)" style="fill:#127C8D;" width="93.989" height="36.758"/>
<rect x="318.15" y="337.728" transform="matrix(-0.7071 -0.7071 0.7071 -0.7071 371.5353 866.1094)" style="fill:#053847;" width="93.989" height="36.758"/>
<rect x="413.222" y="375.577" transform="matrix(-0.7071 0.7071 -0.7071 -0.7071 1035.5917 416.187)" style="fill:#127C8D;" width="36.758" height="93.989"/>
<g>
	
		<rect x="439.235" y="349.583" transform="matrix(0.7071 -0.7071 0.7071 0.7071 -146.3909 439.7371)" style="fill:#4BBCD6;" width="36.758" height="93.989"/>
	
		<rect x="358.632" y="430.193" transform="matrix(0.7071 0.7071 -0.7071 0.7071 435.9937 -155.4377)" style="fill:#4BBCD6;" width="93.989" height="36.758"/>
</g>
<rect x="320.759" y="335.103" transform="matrix(-0.7071 0.7071 -0.7071 -0.7071 849.1291 412.4735)" style="fill:#127C8D;" width="36.758" height="93.989"/>
<rect x="137.511" y="99.86" transform="matrix(-0.7071 0.7071 -0.7071 -0.7071 369.9621 140.465)" style="fill:#053847;" width="36.758" height="93.989"/>
<rect x="68.423" y="36.016" transform="matrix(-0.7071 -0.7071 0.7071 -0.7071 158.5676 174.4707)" style="fill:#4BBCD6;" width="93.989" height="36.758"/>
<g>
	
		<rect x="163.514" y="73.868" transform="matrix(0.7071 -0.7071 0.7071 0.7071 -32.1878 164.0173)" style="fill:#127C8D;" width="36.758" height="93.989"/>
	
		<rect x="42.435" y="62.01" transform="matrix(-0.7071 -0.7071 0.7071 -0.7071 95.8226 200.4685)" style="fill:#127C8D;" width="93.989" height="36.758"/>
	
		<rect x="82.915" y="154.469" transform="matrix(0.7071 0.7071 -0.7071 0.7071 160.2717 -41.2337)" style="fill:#127C8D;" width="93.989" height="36.758"/>
</g>
<g>
	
		<rect x="45.051" y="59.383" transform="matrix(-0.7071 0.7071 -0.7071 -0.7071 183.5016 136.7462)" style="fill:#4BBCD6;" width="36.758" height="93.989"/>
	<path style="fill:#4BBCD6;" d="M8.171,320.213L191.788,503.83c8.665-49.175-5.987-101.655-43.974-139.643
		S57.346,311.548,8.171,320.213z"/>
</g>
<g>
	<path style="fill:#3E0412;" d="M509.607,411.042l-132.929-132.93c-3.191-3.191-8.364-3.191-11.554,0l-33.211,33.211l-11.555-11.555
		l87.27-87.27c3.191-3.191,3.191-8.364,0-11.554l-4.051-4.051l32.737-32.738c1.705-1.705,2.57-4.075,2.363-6.477l-3.427-39.826
		c-0.516-6-3.982-13.446-8.24-17.705l-15.154-15.155c-4.258-4.258-11.704-7.722-17.704-8.24l-39.827-3.427
		c-0.066-0.005-0.133-0.002-0.199-0.007c-0.203-0.012-0.406-0.022-0.61-0.019c-0.107,0.001-0.211,0.01-0.317,0.015
		c-0.176,0.009-0.352,0.021-0.527,0.041c-0.11,0.013-0.218,0.029-0.327,0.047c-0.172,0.027-0.344,0.059-0.514,0.098
		c-0.103,0.023-0.206,0.048-0.308,0.075c-0.176,0.047-0.351,0.101-0.524,0.159c-0.093,0.032-0.185,0.062-0.276,0.097
		c-0.181,0.069-0.359,0.147-0.536,0.229c-0.08,0.037-0.16,0.071-0.239,0.111c-0.183,0.093-0.362,0.196-0.539,0.303
		c-0.069,0.041-0.139,0.078-0.206,0.122c-0.183,0.119-0.361,0.249-0.536,0.383c-0.056,0.042-0.113,0.08-0.168,0.123
		c-0.224,0.181-0.442,0.375-0.651,0.583l-32.738,32.74l-4.051-4.051c-3.191-3.191-8.364-3.191-11.554,0l-87.27,87.27l-11.555-11.555
		l33.211-33.211c3.191-3.191,3.191-8.364,0-11.554L100.96,2.394c-3.191-3.191-8.364-3.191-11.554,0L11.429,80.37
		c-3.191,3.191-3.191,8.364,0,11.554l132.93,132.93c1.595,1.595,3.686,2.393,5.777,2.393c2.09,0,4.182-0.797,5.777-2.393
		l33.211-33.211l11.555,11.555l-83.819,83.819c-3.191,3.191-3.191,8.364,0,11.554l29.05,29.05l-13.117,13.117
		c-28.091-20.202-61.697-31.11-96.986-31.11c-9.718,0-19.494,0.854-29.054,2.539c-3.001,0.528-5.458,2.683-6.375,5.588
		c-0.917,2.905-0.139,6.081,2.015,8.234l43.857,43.857l-7.306,71.139c-0.251,2.446,0.612,4.874,2.351,6.611l23.109,23.109
		c1.54,1.54,3.621,2.393,5.777,2.393c0.278,0,0.557-0.014,0.836-0.042l71.139-7.305l43.857,43.857
		c1.556,1.556,3.644,2.393,5.778,2.393c0.82,0,1.649-0.124,2.457-0.378c2.905-0.916,5.06-3.374,5.588-6.375
		c7.509-42.616-1.921-86.07-25.427-121.393l13.868-13.868l25.154,25.154c1.595,1.595,3.686,2.393,5.777,2.393
		c2.09,0,4.182-0.797,5.777-2.393l83.819-83.819l11.555,11.555l-33.211,33.211c-3.191,3.191-3.191,8.364,0,11.554l132.93,132.93
		c1.595,1.595,3.686,2.393,5.777,2.393c2.09,0,4.182-0.797,5.777-2.393l77.977-77.977
		C512.799,419.406,512.799,414.232,509.607,411.042z M183.347,174.311c-0.005,0.005-7.218,7.219-7.218,7.219l-54.911-54.911
		l14.437-14.437l54.911,54.911C190.566,167.093,183.352,174.307,183.347,174.311z M202.121,155.538l-54.911-54.911l14.437-14.437
		l54.91,54.91L202.121,155.538z M43.198,71.709l37.58,37.58c1.595,1.595,3.686,2.393,5.777,2.393s4.182-0.797,5.777-2.393
		c3.191-3.191,3.191-8.364,0-11.554l-37.579-37.58l14.437-14.437l37.58,37.58c1.595,1.595,3.686,2.393,5.777,2.393
		s4.182-0.797,5.777-2.393c3.191-3.191,3.191-8.364,0-11.554l-37.58-37.581l14.437-14.437l54.911,54.91l-20.212,20.211
		c-0.007,0.007-25.994,25.993-25.994,25.993c-0.003,0.003-20.216,20.216-20.216,20.216L28.761,86.147L43.198,71.709z
		 M150.137,207.523l-54.911-54.911l14.437-14.437l54.911,54.911L150.137,207.523z M353.624,93.019l37.068,37.068
		c1.595,1.595,3.686,2.393,5.777,2.393s4.182-0.797,5.777-2.393c3.191-3.191,3.191-8.364,0-11.554l-27.009-27.009l17.511,1.507
		c2.147,0.185,6.029,1.992,7.553,3.515l15.153,15.153c1.523,1.524,3.33,5.405,3.515,7.553l3.1,36.038l-30.049,30.049l-65.358-65.358
		L353.624,93.019z M73.211,456.404L55.597,438.79l5.55-54.047l66.11,66.11L73.211,456.404z M185.701,486.188L25.813,326.3
		c3.331-0.221,6.667-0.332,9.996-0.332c33.97,0,66.215,11.199,92.523,31.844c0.054,0.045,0.109,0.088,0.164,0.132
		c4.711,3.708,9.236,7.715,13.541,12.02C172.791,400.72,188.53,443.221,185.701,486.188z M164.586,370.569
		c-3.449-4.207-7.108-8.27-10.995-12.158c-2.574-2.574-5.225-5.044-7.934-7.427l11.808-11.808l19.258,19.258L164.586,370.569z
		 M219.208,377.81l-85.016-85.016L305.28,121.705l85.016,85.016L219.208,377.81z M318.917,347.427l37.58,37.58
		c1.595,1.595,3.686,2.393,5.777,2.393s4.182-0.797,5.777-2.393c3.191-3.191,3.191-8.364,0-11.554l-37.58-37.58l7.214-7.214
		c0.011-0.011,7.225-7.225,7.225-7.225l37.58,37.58c1.595,1.595,3.686,2.393,5.777,2.393s4.182-0.797,5.777-2.393
		c3.191-3.191,3.191-8.364,0-11.554l-37.58-37.58l14.437-14.437l54.91,54.91l-66.422,66.422l-54.911-54.911L318.917,347.427z
		 M451.847,457.249l-54.91-54.91l14.437-14.437l54.91,54.91L451.847,457.249z M425.855,483.241l-54.91-54.91l14.437-14.437
		l54.91,54.91L425.855,483.241z M477.838,431.257l-54.91-54.91l14.437-14.437l54.91,54.91L477.838,431.257z"/>
	<path style="fill:#3E0412;" d="M29.741,459.151c-3.191-3.191-8.364-3.191-11.554,0c-3.191,3.191-3.191,8.364,0,11.554
		l23.109,23.109c1.595,1.595,3.686,2.393,5.777,2.393s4.182-0.797,5.777-2.393c3.191-3.191,3.191-8.364,0-11.554L29.741,459.151z"/>
</g>
<g>
</g>
<g>
</g>
<g>
</g>
<g>
</g>
<g>
</g>
<g>
</g>
<g>
</g>
<g>
</g>
<g>
</g>
<g>
</g>
<g>
</g>
<g>
</g>
<g>
</g>
<g>
</g>
<g>
</g>
</svg>
